<svg xmlns="http://www.w3.org/2000/svg" viewBox="0 0 1077.114 353.161"><title>PF_MAIN_LOGO_FULLCOLOR</title><path d="M6903.477,7268.538a8.605,8.605,0,0,1-8.606-8.6V7004.705a8.606,8.606,0,1,1,17.211,0v255.228A8.6,8.6,0,0,1,6903.477,7268.538Z" transform="translate(-6673.202 -6994.195)" fill="#1f3c7e"/><path d="M6940.746,7136.322a189.932,189.932,0,0,1-33.351-2.871,8.605,8.605,0,0,1,3.288-16.893c.817.154,56.18,10.459,85.421-11.69,10.517-7.967,16.233-19.053,17.475-33.893,1.5-17.886-2.89-31.326-13.41-41.089-28.443-26.4-91-16.783-91.629-16.683a8.605,8.605,0,1,1-2.709-17c2.9-.463,71.528-10.97,106.046,21.064,14.449,13.409,20.791,31.961,18.852,55.139-1.651,19.728-9.817,35.275-24.274,46.207C6987.568,7132.9,6961.438,7136.322,6940.746,7136.322Z" transform="translate(-6673.202 -6994.195)" fill="#1f3c7e"/><path d="M7028.387,7268.539q-1.113,0-2.258-.029c-34.314-.892-45.612-35.088-46.827-53.262a61.878,61.878,0,0,1-.209-9.233c0-.2.014-.407.031-.607a68.619,68.619,0,0,1,3.311-17.818c4.571-13.711,15.832-31.288,43.523-37.162,15.546-3.3,28.85-1.02,39.544,6.772,18.829,13.718,21.683,39.541,21.795,40.634a8.6,8.6,0,0,1-7.859,9.456l-79.936,6.534a2.937,2.937,0,0,0-2.667,3.359c1.319,9.024,6.994,33.53,29.741,34.122,28.14.76,33.96-16.358,34.195-17.085l-.037.123,13.464,3.883a2.929,2.929,0,0,1,1.873,4.008C7072.639,7249.842,7060.9,7268.539,7028.387,7268.539Zm10.771-102.37a46.539,46.539,0,0,0-9.629,1.1c-15.63,3.315-25.922,11.809-30.588,25.245h0a2.906,2.906,0,0,0,2.982,3.849l62.5-5.108a2.931,2.931,0,0,0,2.511-3.965c-2.2-5.649-5.818-12.013-11.64-16.225A26.683,26.683,0,0,0,7039.158,7166.169Z" transform="translate(-6673.202 -6994.195)" fill="#1f3c7e"/><path d="M7312.246,7268.539c-.742,0-1.493-.01-2.258-.029-34.314-.892-45.612-35.088-46.827-53.262a61.736,61.736,0,0,1-.21-9.216c0-.216.014-.429.033-.641a68.583,68.583,0,0,1,3.31-17.8c4.571-13.711,15.832-31.288,43.522-37.162,15.548-3.3,28.851-1.02,39.545,6.772,18.828,13.718,21.684,39.541,21.8,40.634a8.6,8.6,0,0,1-7.859,9.456l-80.333,6.566a2.559,2.559,0,0,0-2.333,2.9c1.2,8.649,6.687,33.948,29.8,34.549,28.133.76,33.96-16.358,34.194-17.085l-.037.123,13.875,4a2.563,2.563,0,0,1,1.637,3.495C7356.907,7249.173,7345.33,7268.539,7312.246,7268.539Zm10.771-102.37a46.507,46.507,0,0,0-9.628,1.1c-15.836,3.359-26.187,12.028-30.767,25.769l-.012.037a2.557,2.557,0,0,0,2.652,3.33l63.519-5.191a2.563,2.563,0,0,0,2.2-3.457c-2.187-5.763-5.837-12.364-11.82-16.692A26.683,26.683,0,0,0,7323.017,7166.169Z" transform="translate(-6673.202 -6994.195)" fill="#1f3c7e"/><path d="M7109.148,7268.538a8.6,8.6,0,0,1-8.605-8.6V7150.27a8.606,8.606,0,1,1,17.211,0v109.663A8.605,8.605,0,0,1,7109.148,7268.538Z" transform="translate(-6673.202 -6994.195)" fill="#1f3c7e"/><path d="M7109.4,7227.484a8.612,8.612,0,0,1-8.4-10.494c1.406-6.248,14.68-61.239,47.248-67.844a8.605,8.605,0,1,1,3.42,16.867c-18.375,3.727-30.93,41.74-33.879,54.762A8.612,8.612,0,0,1,7109.4,7227.484Z" transform="translate(-6673.202 -6994.195)" fill="#1f3c7e"/><path d="M7392.1,7268.538a8.7,8.7,0,0,1-8.606-8.795V7150.46a8.608,8.608,0,1,1,17.211,0v109.283A8.7,8.7,0,0,1,7392.1,7268.538Z" transform="translate(-6673.202 -6994.195)" fill="#1f3c7e"/><path d="M7392.348,7230.226a8.617,8.617,0,0,1-8.4-10.495c1.408-6.249,14.682-61.239,47.249-67.844a8.605,8.605,0,1,1,3.42,16.867c-18.374,3.726-30.929,41.74-33.88,54.763A8.612,8.612,0,0,1,7392.348,7230.226Z" transform="translate(-6673.202 -6994.195)" fill="#1f3c7e"/><path d="M7463.285,7268.86a8.7,8.7,0,0,1-8.6-8.8V7150.459a8.608,8.608,0,1,1,17.211,0v109.606A8.7,8.7,0,0,1,7463.285,7268.86Z" transform="translate(-6673.202 -6994.195)" fill="#1f3c7e"/><path d="M7463.537,7230.226a8.617,8.617,0,0,1-8.4-10.495c1.407-6.249,14.681-61.239,47.249-67.844a8.605,8.605,0,0,1,3.42,16.867c-18.374,3.726-30.93,41.74-33.88,54.763A8.612,8.612,0,0,1,7463.537,7230.226Z" transform="translate(-6673.202 -6994.195)" fill="#1f3c7e"/><path d="M7182.322,7268.538a8.515,8.515,0,0,1-8.606-8.421V7150.085a8.608,8.608,0,0,1,17.211,0v110.032A8.515,8.515,0,0,1,7182.322,7268.538Z" transform="translate(-6673.202 -6994.195)" fill="#1f3c7e"/><path d="M7239.283,7268.538a8.6,8.6,0,0,1-8.605-8.6V7013.281a8.605,8.605,0,0,1,8.605-8.606h85.53a8.606,8.606,0,1,1,0,17.211h-76.924v238.047A8.605,8.605,0,0,1,7239.283,7268.538Z" transform="translate(-6673.202 -6994.195)" fill="#1f3c7e"/><path d="M7245.369,7116.891" transform="translate(-6673.202 -6994.195)" fill="#fff" stroke="#000" stroke-linecap="round" stroke-linejoin="round" stroke-width="17.211"/><path d="M7308.356,7125.5h-63.974a8.606,8.606,0,1,1,0-17.211h63.974a8.606,8.606,0,1,1,0,17.211Z" transform="translate(-6673.202 -6994.195)" fill="#1f3c7e"/><path d="M7542.26,7268.775a8.624,8.624,0,0,1-3.493-.739,8.51,8.51,0,0,1-4.365-11.269l46.359-103.346a8.63,8.63,0,0,1,11.36-4.329,8.509,8.509,0,0,1,4.364,11.27l-46.358,103.345A8.612,8.612,0,0,1,7542.26,7268.775Z" transform="translate(-6673.202 -6994.195)" fill="#1f3c7e"/><path d="M7562.436,7217.362a8.607,8.607,0,0,1-8.531-7.559h0c-1.823-14.8-8.546-38.2-17.183-41.42a8.605,8.605,0,1,1,6.017-16.124c21.432,8,27.292,47.6,28.249,55.456a8.6,8.6,0,0,1-7.5,9.583A8.7,8.7,0,0,1,7562.436,7217.362Z" transform="translate(-6673.202 -6994.195)" fill="#1f3c7e"/><path d="M7182.322,7127.416a18.479,18.479,0,1,1,18.478-18.478A18.5,18.5,0,0,1,7182.322,7127.416Z" transform="translate(-6673.202 -6994.195)" fill="#c8469e"/><path d="M6838.321,7000.921l34.251,271.2a7.009,7.009,0,0,1-7.007,7.887l-163.158-1.246a7.008,7.008,0,0,1-6.271-10.028l128.908-269.959A7.008,7.008,0,0,1,6838.321,7000.921Z" transform="translate(-6673.202 -6994.195)" fill="#5046b6"/><path d="M7621.537,7081.769,7597.5,7271.616a7.408,7.408,0,0,0,7.338,8.428l107.676-1.505a7.274,7.274,0,0,0,6.309-10.44l-88.525-187.78A4.6,4.6,0,0,0,7621.537,7081.769Z" transform="translate(-6673.202 -6994.195)" fill="#5046b6"/><path d="M7454.955,7347.356q-.72,0-1.456-.016c-17.357-.4-27.145-7.542-35.008-13.286-7.138-5.213-12.3-8.981-23.2-9.033h-.206c-10.212,0-15.468,3.741-22.724,8.9-8.223,5.853-18.449,13.129-36.073,13.13h-.343c-17.7-.1-27.359-7.491-35.124-13.433-6.472-4.954-11.149-8.533-20.646-8.7-13.106-.23-19.978,4.1-28.653,9.594-9.612,6.084-20.523,12.97-39.125,12.48-17.908-.479-28.307-7.648-36.662-13.408-7.6-5.238-13.082-8.994-23.994-8.78-11.059.247-16.783,4.1-24.03,8.988-8.087,5.45-18.152,12.232-35.338,12.565-18.113.319-28.968-6.738-37.682-12.434-7.84-5.124-14.032-9.171-25.629-9.224h-.223c-11.372,0-17.457,3.97-25.149,8.988-8.651,5.641-19.416,12.664-37.618,12.673h-.037c-18.136,0-28.846-6.992-37.454-12.612-7.774-5.074-13.913-9.083-25.633-9.158-11.648-.1-17.925,4.166-25.841,9.537-8.876,6.022-19.915,13.537-38.451,12.863-17.833-.628-28.181-8.168-36.495-14.226-7.384-5.38-12.266-8.932-21.728-8.307-9.094.6-14.73,4.635-21.866,9.739-8.552,6.118-18.21,13.038-33.744,12.8-21.689-.351-38.2-16.095-48.063-25.5l-.144-.137a11,11,0,1,1,15.182-15.921l.144.136c8.023,7.652,20.149,19.213,33.238,19.426,8.255.121,13.422-3.57,20.588-8.7,7.96-5.694,17.867-12.78,33.21-13.8,17.424-1.159,27.8,6.4,36.138,12.477,7.384,5.38,13.216,9.63,24.315,10.021,11.34.4,17.21-3.577,25.324-9.083,8.833-5.991,19.87-13.431,38.334-13.331,18.189.117,28.907,7.114,37.519,12.736,7.73,5.047,13.837,9.034,25.425,9.034h.027c11.668-.006,17.821-4.019,25.611-9.1,8.634-5.632,19.368-12.612,37.491-12.559,18.1.082,28.891,7.139,37.565,12.809,7.755,5.069,13.888,9.071,25.22,8.853,10.7-.207,16.334-4.005,23.47-8.813,8.163-5.5,18.323-12.348,35.833-12.738,18.032-.4,28.53,6.841,36.972,12.662,7.476,5.153,13.38,9.223,24.763,9.528,11.937.321,18.476-3.828,26.77-9.077,9.4-5.95,21.06-13.378,40.816-13,16.729.3,26.1,7.47,33.622,13.229,6.711,5.137,11.561,8.849,21.87,8.9h.237c10.585,0,15.929-3.8,23.305-9.054,8.13-5.787,18.239-12.981,35.489-12.981h.305c18.027.087,28.033,7.4,36.073,13.267,7.011,5.12,12.075,8.82,22.532,9.058,11.789.263,18.668-4.572,26.627-10.175,6.744-4.748,14.388-10.13,24.83-11.7a60.679,60.679,0,0,1,15.213-.287c16.324,1.625,25.434,8.1,32.753,13.309,6.381,4.539,10.991,7.819,20.337,8.163,10.771.39,16.441-3.409,24.309-8.676,8.488-5.68,19.046-12.749,36.388-12.749h.107c17.027.029,28.359,7.268,37.464,13.084,8.294,5.3,14.838,9.485,25.027,8.985,13.938-.685,26.331-12.529,34.532-20.368l.13-.124a11,11,0,1,1,15.2,15.9l-.131.124c-9.92,9.481-26.523,25.351-48.652,26.436-17.2.842-28.219-6.2-37.95-12.417-8.069-5.154-15.038-9.606-25.658-9.624h-.072c-10.657,0-16.612,3.987-24.148,9.032-8.678,5.808-19.516,13.036-37.358,12.378-15.923-.587-24.612-6.767-32.278-12.22-6.519-4.637-11.668-8.3-22.179-9.345a38.931,38.931,0,0,0-9.762.151c-5.3.8-9.775,3.946-15.438,7.934C7484.282,7339.5,7473.128,7347.356,7454.955,7347.356Z" transform="translate(-6673.202 -6994.195)" fill="#1f3c7e"/></svg>